<svg width="87" height="87" viewBox="0 0 87 87" fill="none" xmlns="http://www.w3.org/2000/svg">
<g clip-path="url(#clip0_145_82)">
<path d="M43.5 87C67.5244 87 87 67.5244 87 43.5C87 19.4756 67.5244 0 43.5 0C19.4756 0 0 19.4756 0 43.5C0 67.5244 19.4756 87 43.5 87Z" fill="white"/>
<path d="M14.4878 45.7877C14.4878 45.163 14.5962 44.564 14.8101 43.9935C15.0241 43.423 15.3407 42.921 15.7571 42.4902C16.1736 42.0595 16.6785 41.7229 17.2718 41.4833C17.8651 41.2437 18.5383 41.1239 19.2885 41.1239C20.0472 41.1239 20.7233 41.2466 21.3166 41.489C21.9099 41.7315 22.4148 42.0709 22.8284 42.5045C23.242 42.9381 23.5558 43.4401 23.7697 44.0077C23.9836 44.5754 24.0892 45.183 24.0892 45.8219C24.0892 46.458 23.9865 47.0599 23.7811 47.6218C23.5757 48.1837 23.2705 48.6829 22.8712 49.1165C22.4718 49.5501 21.9669 49.8924 21.3622 50.1405C20.7546 50.3915 20.0701 50.5142 19.3027 50.5142C18.4784 50.5142 17.7567 50.3744 17.1434 50.092C16.5302 49.8096 16.0253 49.4388 15.6373 48.9767C15.2465 48.5146 14.9584 48.004 14.773 47.445C14.5791 46.8944 14.4878 46.3382 14.4878 45.7877ZM16.6728 45.6707C16.6728 46.2954 16.7184 46.9115 16.8125 47.5163C16.9067 48.121 17.1491 48.6886 17.5399 49.2163C17.9307 49.744 18.5212 50.0065 19.3084 50.0065C20.4124 50.0065 21.1198 49.5615 21.4307 48.6715C21.7416 47.7815 21.8956 46.8745 21.8956 45.9503C21.8956 45.2286 21.8329 44.5554 21.7074 43.925C21.5819 43.2946 21.328 42.7584 20.9429 42.3105C20.5578 41.8627 20.013 41.6373 19.3084 41.6373C18.5155 41.6373 17.925 41.8941 17.5371 42.4018C17.1463 42.9124 16.9067 43.4544 16.8125 44.0306C16.7184 44.6068 16.6728 45.1544 16.6728 45.6707Z" fill="#0E2144"/>
<path d="M34.1753 41.2152V41.3977C33.8615 41.4633 33.619 41.5261 33.4393 41.586C33.2625 41.643 33.0543 41.7628 32.8118 41.9426C32.5693 42.1223 32.3212 42.3847 32.0616 42.7298L30.2931 45.0746L32.7605 48.7856C32.9345 49.048 33.117 49.2791 33.3024 49.4788C33.4878 49.6784 33.6961 49.8496 33.9271 49.9893C34.1582 50.1291 34.4035 50.2147 34.663 50.2432V50.4258H29.5743V50.2432C30.3273 50.2432 30.7067 50.035 30.7067 49.6185C30.7067 49.5301 30.6867 49.4417 30.6468 49.3532C30.6068 49.2648 30.5384 49.1479 30.4385 49.0052L28.9638 46.8117L27.3008 49.0052C27.1297 49.2591 27.0441 49.473 27.0441 49.6413C27.0441 49.8695 27.124 50.0207 27.2866 50.0949C27.4492 50.169 27.6403 50.2175 27.8628 50.2432V50.4258H24.2373V50.2432C24.5967 50.2261 24.9219 50.1462 25.2157 50.0065C25.5095 49.8667 25.7463 49.7127 25.926 49.5501C26.1057 49.3875 26.3681 49.1279 26.7132 48.7742L26.7874 48.6544L28.6073 46.2869L26.1998 42.6557C26.0258 42.3818 25.8404 42.1508 25.6493 41.9654C25.4582 41.78 25.287 41.6488 25.133 41.5717C24.9818 41.4947 24.8449 41.4462 24.7279 41.4291C24.6081 41.4091 24.5026 41.4006 24.4056 41.4006V41.218H29.1806V41.4006C28.6444 41.4006 28.3734 41.5831 28.3734 41.9511C28.3734 42.0338 28.3933 42.128 28.4333 42.2307C28.4732 42.3333 28.5502 42.476 28.6672 42.6585L29.9365 44.5411L31.1602 42.9295C31.1602 42.9181 31.1745 42.901 31.203 42.8782C31.4569 42.5273 31.5852 42.2421 31.5852 42.0167C31.5852 41.7885 31.5082 41.6373 31.357 41.5632C31.2059 41.489 31.009 41.4377 30.7666 41.4034V41.2209H34.1753V41.2152Z" fill="#0E2144"/>
<path d="M41.5575 41.2152L41.7001 42.8468H41.5204C41.4291 42.5758 41.3407 42.3704 41.2551 42.2278C41.1695 42.0852 41.0269 41.9682 40.8272 41.8713C40.6276 41.7743 40.3452 41.7286 39.9829 41.7286H38.183V45.4967H39.7519C40.0799 45.4967 40.3823 45.4112 40.6561 45.2429C40.9299 45.0746 41.0754 44.7694 41.0954 44.3272H41.2893V46.9886H41.0954C41.0754 46.7147 40.9699 46.4808 40.7816 46.2897C40.5933 46.0986 40.3024 46.0016 39.9059 46.0016H38.1802V49.0509C38.1802 49.4017 38.2629 49.687 38.4255 49.9066C38.5881 50.1263 38.8819 50.2375 39.3069 50.2375H39.3696V50.4201H35.0082V50.2375C35.4789 50.2375 35.7841 50.132 35.9239 49.918C36.0636 49.707 36.1321 49.416 36.1321 49.048V42.573C36.1321 42.2478 36.0693 41.9711 35.9467 41.7372C35.824 41.5061 35.5302 41.3892 35.0681 41.3892H35.0054V41.2066H41.5575V41.2152Z" fill="#0E2144"/>
<path d="M42.5591 45.7877C42.5591 45.163 42.6675 44.564 42.8814 43.9935C43.0953 43.423 43.412 42.921 43.8284 42.4902C44.2449 42.0595 44.7498 41.7229 45.3431 41.4833C45.9364 41.2437 46.6096 41.1239 47.3598 41.1239C48.1185 41.1239 48.7946 41.2466 49.3879 41.489C49.9812 41.7315 50.4861 42.0709 50.8997 42.5045C51.3133 42.9381 51.6271 43.4401 51.841 44.0077C52.0521 44.5754 52.1605 45.183 52.1605 45.8219C52.1605 46.458 52.0578 47.0599 51.8524 47.6218C51.647 48.1837 51.3418 48.6829 50.9425 49.1165C50.5431 49.5501 50.0382 49.8924 49.4335 50.1405C48.8259 50.3915 48.1413 50.5142 47.374 50.5142C46.5497 50.5142 45.828 50.3744 45.2147 50.092C44.6014 49.8096 44.0994 49.4388 43.7086 48.9767C43.3178 48.5146 43.0297 48.004 42.8443 47.445C42.6532 46.8944 42.5591 46.3382 42.5591 45.7877ZM44.7469 45.6707C44.7469 46.2954 44.7926 46.9115 44.8867 47.5163C44.9808 48.1238 45.2233 48.6886 45.6141 49.2163C46.0049 49.744 46.5953 50.0065 47.3826 50.0065C48.4865 50.0065 49.1939 49.5615 49.5048 48.6715C49.8157 47.7815 49.9698 46.8745 49.9698 45.9503C49.9698 45.2286 49.907 44.5554 49.7815 43.925C49.656 43.2946 49.4021 42.7584 49.017 42.3105C48.632 41.8627 48.0871 41.6373 47.3826 41.6373C46.5896 41.6373 45.9991 41.8941 45.6112 42.4018C45.2204 42.9124 44.9808 43.4544 44.8867 44.0306C44.7926 44.6068 44.7469 45.1544 44.7469 45.6707Z" fill="#0E2144"/>
<path d="M56.3589 46.1072H56.0651V49.0509C56.0651 49.4018 56.1164 49.6613 56.222 49.8353C56.3275 50.0093 56.453 50.1177 56.6042 50.1662C56.7554 50.2147 56.9551 50.2432 57.2032 50.2518V50.4201H52.8789V50.2375C53.361 50.2375 53.6719 50.1291 53.8088 49.9123C53.9457 49.6956 54.0142 49.4075 54.0142 49.0509V42.6015C54.0142 42.1594 53.9258 41.8484 53.7461 41.6659C53.5663 41.4833 53.2783 41.3949 52.8789 41.3949V41.2123H57.6539C58.2843 41.2123 58.8348 41.3093 59.3112 41.5061C59.7876 41.703 60.1498 41.9797 60.398 42.3362C60.649 42.6956 60.7717 43.1035 60.7717 43.5685C60.7717 43.9421 60.6918 44.2759 60.5349 44.5697C60.378 44.8635 60.1641 45.1002 59.8931 45.2885C59.625 45.4768 59.3255 45.6194 58.9974 45.7192C59.4253 45.9902 59.8418 46.4694 60.2468 47.1569L61.3479 49.0252C61.5361 49.3447 61.7073 49.5957 61.867 49.7726C62.0239 49.9494 62.1637 50.0664 62.2863 50.1234C62.4061 50.1805 62.5373 50.2176 62.68 50.2404V50.4229H59.7105C59.4224 49.9009 59.2028 49.4873 59.0488 49.1793C58.5581 48.218 58.1987 47.5477 57.9734 47.174C57.7481 46.8003 57.517 46.5293 57.2774 46.361C57.0349 46.1899 56.7297 46.1072 56.3589 46.1072ZM56.5643 41.7258H56.0651V45.5937H56.4844C57.2004 45.5937 57.7395 45.4226 58.1018 45.0774C58.464 44.7323 58.6466 44.2388 58.6466 43.5941C58.6466 43.1948 58.5696 42.8554 58.4127 42.5787C58.2558 42.302 58.0219 42.0909 57.7138 41.9454C57.4058 41.7999 57.0178 41.7258 56.5643 41.7258Z" fill="#0E2144"/>
<path d="M62.9966 41.2152H68.0283C68.8498 41.2152 69.5858 41.3407 70.239 41.5946C70.8922 41.8484 71.437 42.1964 71.8734 42.6414C72.3099 43.0864 72.6407 43.5941 72.8604 44.1618C73.08 44.7294 73.1913 45.3313 73.1913 45.9645C73.1913 46.5807 73.0886 47.1569 72.8832 47.6903C72.6778 48.2237 72.3669 48.6972 71.9476 49.1079C71.5311 49.5215 71.0091 49.841 70.3844 50.0749C69.7598 50.306 69.0552 50.4229 68.2708 50.4229H62.9966V50.2404C63.4786 50.2404 63.7924 50.132 63.9322 49.918C64.072 49.7041 64.1404 49.416 64.1404 49.0537V42.6157C64.1404 42.2734 64.0777 41.9853 63.9522 41.7514C63.8266 41.5175 63.53 41.3977 63.065 41.3977H62.9966V41.2152ZM66.1828 41.8342V48.5774C66.1828 48.9026 66.2199 49.1593 66.2912 49.3532C66.3625 49.5472 66.4994 49.687 66.6991 49.7754C66.8987 49.8638 67.2011 49.9095 67.6062 49.9095C67.9684 49.9095 68.2936 49.8867 68.5817 49.8382C68.8698 49.7897 69.1408 49.6955 69.3946 49.5529C69.7712 49.3361 70.0792 49.0395 70.3217 48.6601C70.567 48.2807 70.7439 47.8643 70.8551 47.4107C70.9663 46.9572 71.0234 46.4865 71.0234 46.0045C71.0234 45.5053 70.9578 45.0061 70.8237 44.5098C70.6897 44.0134 70.4729 43.557 70.1705 43.1349C69.8682 42.7127 69.4603 42.3733 68.9468 42.1166C68.4334 41.857 67.8058 41.7286 67.0699 41.7286C66.8103 41.7258 66.5137 41.7629 66.1828 41.8342Z" fill="#0E2144"/>
<path d="M20.9085 53.0757L20.9827 55.138H20.8001C20.7174 54.7929 20.6233 54.5076 20.5234 54.2823C20.4207 54.057 20.2753 53.8858 20.0899 53.766C19.9016 53.6462 19.6449 53.5892 19.3225 53.5892H17.4656V57.4571H18.946C19.3882 57.4571 19.7105 57.3601 19.9102 57.1633C20.1098 56.9665 20.2296 56.6784 20.2639 56.2933H20.4464V58.9917H20.2639C20.2011 58.5838 20.0499 58.31 19.8075 58.1731C19.565 58.0361 19.2769 57.9677 18.946 57.9677H17.4656V60.6176C17.4656 61.3849 17.8621 61.7672 18.6522 61.7672H19.2142C19.5935 61.7672 19.9016 61.7158 20.1412 61.616C20.3808 61.5161 20.5776 61.345 20.7345 61.0997C20.8914 60.8572 21.0312 60.5121 21.1567 60.0642H21.3392L21.2023 62.2777H14.2651V62.0952C14.7472 62.0952 15.061 61.9868 15.2036 61.7672C15.3462 61.5475 15.4175 61.2623 15.4175 60.9086V54.4592C15.4175 54.1226 15.3519 53.8373 15.2236 53.6034C15.0952 53.3695 14.7957 53.2526 14.3307 53.2526H14.268V53.07H20.9085V53.0757Z" fill="#0E2144"/>
<path d="M25.1816 53.0757L30.801 59.006V54.7958C30.801 54.2424 30.6897 53.863 30.4644 53.6605C30.239 53.458 29.8967 53.3239 29.4318 53.2583V53.0757H32.6066V53.2583C32.2557 53.2954 31.9961 53.3895 31.825 53.5435C31.6538 53.6947 31.5426 53.8744 31.4941 54.0769C31.4428 54.2823 31.4199 54.5219 31.4199 54.7958V62.3833H31.1889L24.4514 55.2949V60.475C24.4514 60.9086 24.5427 61.2794 24.7309 61.5846C24.9163 61.8898 25.2586 62.0638 25.7578 62.1009V62.2835H22.4689V62.1009C23.3903 62.0267 23.8467 61.5732 23.8381 60.746V54.6531C23.8124 54.636 23.7782 54.6075 23.7383 54.5647C23.7012 54.5276 23.6384 54.4677 23.55 54.3822C23.4616 54.2994 23.3846 54.2224 23.3133 54.1568C22.7542 53.6205 22.2664 53.3182 21.8442 53.2554V53.0729H25.1816V53.0757Z" fill="#0E2144"/>
<path d="M41.8029 55.6258H41.6204C41.3779 54.9897 40.9757 54.4706 40.4109 54.0741C39.8461 53.6747 39.1872 53.4779 38.4313 53.4779C37.8494 53.4779 37.3616 53.6034 36.9766 53.8516C36.5915 54.0998 36.2891 54.4335 36.0723 54.8471C35.8584 55.2607 35.7101 55.7114 35.6245 56.1935C35.5418 56.6755 35.499 57.1861 35.499 57.7252C35.499 59.0573 35.7643 60.0814 36.2948 60.7973C36.8254 61.5133 37.5413 61.8698 38.4427 61.8698C39.0874 61.8698 39.4924 61.7729 39.655 61.5818C39.8176 61.3906 39.8975 61.1054 39.8975 60.7317V59.6706C39.8975 59.4567 39.8804 59.2713 39.849 59.1087C39.8147 58.9461 39.7292 58.7978 39.5894 58.6608C39.4496 58.5239 39.2386 58.4498 38.9562 58.4326V58.2387H42.7927V58.4326C42.2308 58.5068 41.9484 58.852 41.9484 59.4652V61.7101C40.9643 62.1608 39.8518 62.3861 38.611 62.3861C38.1118 62.3861 37.6583 62.3519 37.2504 62.2835C36.8453 62.215 36.4831 62.118 36.1665 61.9954C35.8498 61.8727 35.5845 61.7386 35.3678 61.596C35.151 61.4534 34.9456 61.2908 34.7545 61.1111C34.4921 60.8601 34.2582 60.5748 34.0528 60.2497C33.8474 59.9245 33.6791 59.548 33.5479 59.1144C33.4167 58.6837 33.3511 58.2101 33.3511 57.6939C33.3511 56.9978 33.4737 56.3618 33.7219 55.7884C33.9701 55.2122 34.3209 54.7159 34.7745 54.2909C35.228 53.8687 35.7471 53.5464 36.3347 53.3267C36.9195 53.1071 37.5385 52.9958 38.1888 52.9958C38.5568 52.9958 38.8706 53.0215 39.1387 53.07C39.404 53.1214 39.8518 53.2298 40.4822 53.3952C40.6819 53.4608 40.8987 53.495 41.1326 53.495C41.3779 53.495 41.5405 53.3324 41.6204 53.0073H41.8029V55.6258Z" fill="#0E2144"/>
<path d="M50.2974 62.2806H43.2861V62.098C43.7653 62.098 44.0733 61.9896 44.2131 61.7757C44.3529 61.5618 44.4213 61.2737 44.4213 60.9114V54.4506C44.4213 54.0513 44.3358 53.7517 44.1618 53.5549C43.9878 53.3581 43.6968 53.2583 43.2832 53.2583V53.0757H47.6361V53.2583C47.1568 53.2583 46.8431 53.3667 46.6947 53.5806C46.5464 53.7945 46.4723 54.0855 46.4723 54.4534V60.6091C46.4723 60.9884 46.5464 61.2765 46.6919 61.4733C46.8374 61.6702 47.1226 61.77 47.5476 61.77H48.1837C48.6173 61.77 49.0252 61.6588 49.4074 61.4391C49.7897 61.2195 50.132 60.706 50.4315 59.9016H50.614L50.2974 62.2806Z" fill="#0E2144"/>
<path d="M51.1333 53.244V53.0757H55.4576V53.2583C54.9784 53.2583 54.6704 53.3667 54.5306 53.5863C54.3908 53.8059 54.3224 54.094 54.3224 54.4506V60.9114C54.3224 61.1168 54.3423 61.2994 54.3794 61.4619C54.4165 61.6245 54.5163 61.77 54.6761 61.9012C54.8358 62.0324 55.0811 62.098 55.412 62.098H55.4605V62.2806H51.1362V62.098C51.6125 62.098 51.9206 61.9896 52.0603 61.7729C52.203 61.5561 52.2714 61.268 52.2714 60.9114V54.4506C52.2714 54.0256 52.1773 53.7175 51.9947 53.5293C51.8065 53.341 51.5184 53.244 51.1333 53.244Z" fill="#0E2144"/>
<path d="M61.3481 55.3577H61.1056C60.9402 54.7815 60.6749 54.3308 60.3126 53.9971C59.9504 53.6662 59.5111 53.5007 58.9948 53.5007C58.7409 53.5007 58.507 53.5521 58.2988 53.6548C58.0877 53.7575 57.9223 53.9029 57.7996 54.0912C57.6769 54.2823 57.6142 54.4991 57.6142 54.7444C57.6142 54.887 57.637 55.0268 57.6855 55.1637C57.734 55.3006 57.8481 55.4689 58.0335 55.6686C58.2161 55.8683 58.4956 56.0908 58.8721 56.3304C59.2914 56.5928 59.5482 56.7582 59.6394 56.8296C60.1643 57.1576 60.5922 57.4657 60.9259 57.748C61.2596 58.0304 61.5135 58.3385 61.6875 58.6665C61.8615 58.9946 61.9499 59.3682 61.9499 59.7847C61.9499 60.1669 61.8758 60.5178 61.7274 60.8316C61.5791 61.1453 61.368 61.4192 61.097 61.6502C60.8232 61.8813 60.498 62.061 60.1215 62.1865C59.745 62.3148 59.3342 62.3776 58.8949 62.3776C58.4414 62.3776 57.9165 62.292 57.3204 62.1209C57.2548 62.1038 57.1692 62.0866 57.0665 62.0638C56.9638 62.0439 56.8725 62.0324 56.7955 62.0324C56.5987 62.0324 56.4589 62.1351 56.3705 62.3377H56.1509L56.2079 59.7391H56.4504C56.5303 60.2297 56.6986 60.6404 56.961 60.9713C57.2206 61.2994 57.5172 61.539 57.8452 61.6873C58.1733 61.8356 58.4985 61.9098 58.8151 61.9098C59.2772 61.9098 59.6594 61.7814 59.9618 61.5218C60.2641 61.2623 60.4153 60.9485 60.4153 60.5777C60.4153 60.3267 60.3526 60.1099 60.2242 59.9245C60.0958 59.7391 59.9076 59.5565 59.6537 59.3739C59.3998 59.1914 58.9206 58.8776 58.2161 58.4269C57.8452 58.1845 57.5286 57.9506 57.269 57.7281C57.0095 57.5027 56.8041 57.2888 56.6586 57.0806C56.5131 56.8752 56.4104 56.667 56.3477 56.4616C56.2878 56.2562 56.2564 56.0366 56.2564 55.8027C56.2564 55.352 56.3705 54.9099 56.6016 54.4706C56.8326 54.0313 57.1606 53.6747 57.5857 53.398C58.0107 53.1214 58.4956 52.9816 59.0433 52.9816C59.2971 52.9816 59.5425 53.0073 59.7735 53.0558C59.8363 53.0643 59.919 53.0814 60.0245 53.11C60.1301 53.1385 60.2156 53.1584 60.2869 53.1756C60.4695 53.2098 60.6093 53.2269 60.7006 53.2269C60.8432 53.2269 60.9402 53.2041 60.9972 53.1584C61.0543 53.1128 61.1056 53.0472 61.1569 52.9588H61.3509V55.3577H61.3481Z" fill="#0E2144"/>
<path d="M65.7491 57.2004H70.0991V54.462C70.0991 54.1283 70.0364 53.843 69.9108 53.6091C69.7853 53.3752 69.4887 53.2554 69.0237 53.2554H68.961V53.0729H73.2853V53.2554C72.8004 53.2554 72.4923 53.3667 72.3525 53.5863C72.2156 53.806 72.1472 54.0998 72.1472 54.462V60.9114C72.1472 61.1111 72.1671 61.2937 72.2042 61.4591C72.2413 61.6246 72.3383 61.7729 72.498 61.9041C72.6549 62.0353 72.8974 62.1009 73.2226 62.1009H73.2853V62.2835H68.961V62.1009C69.4487 62.1009 69.7597 61.9925 69.8966 61.7757C70.0306 61.5589 70.0991 61.2708 70.0991 60.9143V57.8137H65.7491V60.9143C65.7491 61.1197 65.7691 61.3022 65.8062 61.4677C65.8432 61.6331 65.9402 61.7786 66.1 61.9069C66.2597 62.0353 66.4993 62.1009 66.8245 62.1009H66.8872V62.2835H62.5629V62.1009C63.045 62.1009 63.3559 61.9925 63.4928 61.7757C63.6297 61.5589 63.6982 61.2708 63.6982 60.9143V54.4649C63.6982 54.1283 63.6354 53.843 63.5071 53.6091C63.3787 53.3752 63.0849 53.2583 62.6228 53.2583H62.5601V53.0757H66.8844V53.2583C66.408 53.2583 66.1 53.3667 65.9602 53.5863C65.8176 53.806 65.7491 54.0969 65.7491 54.4649V57.2004Z" fill="#0E2144"/>
<path d="M19.029 64.805L21.7103 71.7051C21.8557 72.0588 22.024 72.3013 22.218 72.4325C22.412 72.5637 22.6544 72.655 22.9397 72.7006V72.8575H19.1573V72.7006C19.6736 72.6721 19.9332 72.5095 19.9332 72.2129C19.9332 72.1672 19.9246 72.0988 19.9075 72.016C19.8904 71.9333 19.8704 71.842 19.8419 71.7451C19.8162 71.6509 19.7991 71.591 19.7906 71.5682L19.1231 69.8738H16.7384L16.1708 71.5054C16.0995 71.6994 16.0624 71.8763 16.0624 72.036C16.0624 72.2813 16.1337 72.4468 16.2792 72.5323C16.4247 72.6179 16.5958 72.675 16.7926 72.7035V72.8604H14.3994V72.7035C14.6476 72.6778 14.8815 72.5609 15.0983 72.3555C15.3151 72.1473 15.5233 71.765 15.7258 71.2088L17.9907 64.8079H19.029V64.805ZM16.9267 69.3433H18.9149L17.8851 66.6563L16.9267 69.3433Z" fill="#0E2144"/>
<path d="M29.8769 67.6204H29.6886C29.6316 67.2353 29.5203 66.8902 29.3549 66.5907C29.1895 66.2912 28.9926 66.043 28.7587 65.8462C28.5248 65.6494 28.2653 65.501 27.9743 65.3983C27.6834 65.2985 27.3753 65.2472 27.0501 65.2472C26.6165 65.2472 26.2343 65.3384 25.9034 65.5238C25.5725 65.7093 25.3187 65.9375 25.1418 66.2113C24.9279 66.5593 24.7796 66.9415 24.6911 67.3637C24.6056 67.7858 24.5599 68.2337 24.5599 68.71C24.5599 69.5772 24.7111 70.2703 25.0163 70.7895C25.3187 71.3086 25.6866 71.6709 26.1145 71.8763C26.5424 72.0816 26.9645 72.1815 27.3782 72.1815C28.3822 72.1815 29.2522 71.6909 29.9881 70.7096V71.4398C29.7457 71.7222 29.4861 71.9704 29.2094 72.1872C28.9299 72.404 28.5847 72.5837 28.1683 72.7292C27.7518 72.8746 27.2669 72.9459 26.7107 72.9459C26.0546 72.9459 25.467 72.8347 24.9536 72.6122C24.4401 72.3897 24.0122 72.0902 23.6728 71.7165C23.3334 71.34 23.0766 70.9121 22.9026 70.4272C22.7286 69.9423 22.6431 69.446 22.6431 68.9325C22.6431 68.4933 22.7001 68.0825 22.8114 67.7031C22.9226 67.3238 23.0738 66.9872 23.2678 66.6934C23.4589 66.3996 23.6871 66.1257 23.9495 65.8718C24.4002 65.4611 24.8708 65.1787 25.3586 65.0304C25.8464 64.882 26.3712 64.805 26.936 64.805C27.4922 64.805 28.0998 64.8963 28.7559 65.0817C28.9869 65.1359 29.1581 65.1644 29.2665 65.1644C29.4661 65.1644 29.6173 65.0332 29.7229 64.7737H29.8798V67.6204H29.8769Z" fill="#0E2144"/>
<path d="M34.6834 64.805L37.3647 71.7051C37.5102 72.0588 37.6785 72.3013 37.8725 72.4325C38.0664 72.5637 38.3089 72.655 38.5941 72.7006V72.8575H34.8146V72.7006C35.3309 72.6721 35.5905 72.5095 35.5905 72.2129C35.5905 72.1672 35.5819 72.0988 35.5677 72.016C35.5506 71.9305 35.5306 71.842 35.5021 71.7451C35.4764 71.6509 35.4593 71.591 35.4507 71.5682L34.7832 69.8738H32.3986L31.8309 71.5054C31.7596 71.6994 31.7226 71.8763 31.7226 72.036C31.7226 72.2813 31.7939 72.4468 31.9393 72.5323C32.0848 72.6179 32.256 72.675 32.4528 72.7035V72.8604H30.0596V72.7035C30.3077 72.6778 30.5416 72.5609 30.7584 72.3555C30.9752 72.1473 31.1834 71.765 31.386 71.2088L33.6508 64.8079H34.6834V64.805ZM32.584 69.3433H34.5722L33.5424 66.6563L32.584 69.3433Z" fill="#0E2144"/>
<path d="M38.5512 64.8792H42.9126C43.6229 64.8792 44.2618 64.9876 44.8266 65.2072C45.3914 65.4269 45.8649 65.7292 46.2414 66.1143C46.6208 66.4994 46.906 66.9415 47.0972 67.4321C47.2883 67.9228 47.3853 68.4448 47.3853 68.9953C47.3853 69.5287 47.2968 70.0279 47.1171 70.49C46.9374 70.9521 46.6693 71.3628 46.307 71.7194C45.9448 72.0759 45.4941 72.3555 44.9521 72.5552C44.4101 72.7548 43.7997 72.8547 43.1208 72.8547H38.5483V72.6978C38.9677 72.6978 39.2358 72.6036 39.3584 72.4182C39.4811 72.2328 39.541 71.9818 39.541 71.668V66.0886C39.541 65.792 39.4868 65.5438 39.3784 65.3384C39.27 65.133 39.0133 65.0332 38.6082 65.0332H38.5483V64.8792H38.5512ZM41.3124 65.4154V71.2601C41.3124 71.5425 41.3438 71.765 41.4065 71.9305C41.4693 72.0959 41.5891 72.2186 41.7602 72.2956C41.9342 72.3726 42.1966 72.4125 42.5446 72.4125C42.8584 72.4125 43.1408 72.3926 43.389 72.3498C43.6371 72.307 43.8739 72.2271 44.0935 72.1045C44.4187 71.9162 44.6868 71.6595 44.8979 71.3286C45.109 71.0006 45.263 70.6383 45.36 70.2447C45.457 69.851 45.5055 69.446 45.5055 69.0267C45.5055 68.5931 45.4484 68.1624 45.3315 67.7316C45.2145 67.3009 45.0263 66.9044 44.7667 66.5393C44.5043 66.1742 44.1506 65.8804 43.7056 65.6551C43.2606 65.4297 42.7186 65.3185 42.0768 65.3185C41.8543 65.3242 41.5976 65.3555 41.3124 65.4154Z" fill="#0E2144"/>
<path d="M53.4352 64.8792L53.5008 66.6677H53.3411C53.2698 66.3682 53.1871 66.12 53.1015 65.926C53.0159 65.7321 52.8876 65.5809 52.725 65.4782C52.5624 65.3755 52.3399 65.3242 52.0575 65.3242H50.4487V68.6758H51.7323C52.1145 68.6758 52.3941 68.5902 52.5681 68.4219C52.7421 68.2536 52.8448 68.0026 52.8733 67.6689H53.0302V70.0079H52.8733C52.8191 69.6542 52.6879 69.4174 52.4768 69.2976C52.2686 69.1778 52.0176 69.1179 51.7295 69.1179H50.4459V71.4142C50.4459 72.0788 50.7882 72.4097 51.4756 72.4097H51.9634C52.2914 72.4097 52.5595 72.3669 52.7678 72.2785C52.976 72.19 53.1471 72.0417 53.2812 71.8306C53.4153 71.6195 53.5379 71.32 53.6463 70.9349H53.8032L53.6834 72.8518H47.6704V72.6949C48.0897 72.6949 48.3607 72.6008 48.4834 72.4097C48.606 72.2214 48.6688 71.9732 48.6688 71.6652V66.0744C48.6688 65.7806 48.6117 65.5352 48.5005 65.3327C48.3892 65.1302 48.1297 65.0304 47.7275 65.0304H47.6733V64.8735H53.4352V64.8792Z" fill="#0E2144"/>
<path d="M64.0378 64.8792V65.0361C63.8296 65.0503 63.6556 65.076 63.5215 65.1159C63.3875 65.1559 63.2734 65.2414 63.1821 65.3755C63.0908 65.5096 63.0594 65.7121 63.0851 65.9802L63.5244 71.3371C63.5558 71.7137 63.61 71.9904 63.6841 72.1701C63.7583 72.3498 63.8496 72.4696 63.9608 72.5295C64.0721 72.5894 64.2461 72.6493 64.4828 72.7035V72.8604H60.8202V72.7035C61.1283 72.6949 61.3679 72.6151 61.5448 72.461C61.7188 72.307 61.7901 71.9989 61.753 71.5397L61.3622 66.4594H61.3394L58.7351 72.8604H58.5468L55.8598 66.6705H55.837L55.4862 71.1175C55.4491 71.5539 55.4804 71.8905 55.5774 72.1216C55.6744 72.3555 55.8028 72.5067 55.9654 72.5751C56.1251 72.6464 56.3134 72.6892 56.5273 72.7035V72.8604H53.8203V72.7035C54.1626 72.6807 54.4222 72.5437 54.599 72.2927C54.773 72.0389 54.8928 71.6195 54.9527 71.0319L55.489 65.9831C55.1524 65.444 54.6932 65.1302 54.1141 65.0418V64.8849H56.9951L59.3027 70.1334L61.4421 64.8849H64.0378V64.8792Z" fill="#0E2144"/>
<path d="M73.2884 64.8792V65.0361C72.8948 65.0532 72.544 65.1673 72.233 65.3755C71.9221 65.5837 71.6084 65.9175 71.2917 66.3796L69.817 68.5731V71.6709C69.817 72.0246 69.8883 72.2842 70.0309 72.4496C70.1736 72.6151 70.4303 72.6978 70.804 72.6978V72.8547H67.0558V72.6978C67.4666 72.6978 67.7347 72.6036 67.8574 72.4182C67.98 72.2328 68.0428 71.9818 68.0428 71.668V69.0038L65.6695 65.8576C65.41 65.5067 65.196 65.2814 65.0334 65.1844C64.868 65.0846 64.6683 65.0361 64.4287 65.0361V64.8792H68.3565V65.0361C68.1512 65.0446 67.9886 65.0674 67.8688 65.1131C67.749 65.1587 67.6891 65.2529 67.6891 65.4069C67.6891 65.541 67.7918 65.7492 67.9971 66.0344L69.4804 68.1481L70.6727 66.3824C70.8781 66.0715 70.9808 65.7891 70.9808 65.5381C70.9808 65.4126 70.9295 65.2985 70.8268 65.1958C70.7241 65.096 70.5472 65.0418 70.2934 65.0389V64.882H73.2884V64.8792Z" fill="#0E2144"/>
<path fill-rule="evenodd" clip-rule="evenodd" d="M44.0103 37.6582C42.1334 37.6953 40.2622 37.6097 38.3938 37.43C34.8254 37.0848 31.314 36.4316 27.8939 35.322C25.2811 34.4748 22.7766 33.3938 20.4633 31.8877C18.8745 30.8522 17.4283 29.6485 16.273 28.1224C15.3774 26.9415 14.7298 25.6408 14.476 24.1603C14.185 22.4688 14.4475 20.86 15.1891 19.3254C15.9307 17.7851 17.0232 16.5272 18.3011 15.4204C20.1837 13.7888 22.3288 12.5879 24.5965 11.6038C27.3177 10.4258 30.1502 9.6128 33.054 9.03375C34.9966 8.64582 36.9534 8.36628 38.9273 8.21224C40.151 8.11526 41.3775 8.06677 42.6012 8.01542C44.2642 7.94697 45.9272 7.99831 47.5873 8.101C51.8318 8.36057 56.0021 9.04516 60.0583 10.3516C62.7111 11.2045 65.2526 12.3027 67.5945 13.8401C69.1063 14.8328 70.4869 15.9823 71.6107 17.42C72.4864 18.541 73.1454 19.7733 73.4506 21.1767C73.8499 22.9965 73.596 24.7337 72.7859 26.3995C72.0386 27.9313 70.9461 29.1835 69.6739 30.2846C67.9139 31.8078 65.9229 32.9516 63.815 33.8986C61.088 35.1252 58.2413 35.9724 55.3203 36.5742C53.5547 36.9394 51.7776 37.2218 49.9862 37.3872C48.6627 37.507 47.3335 37.584 46.0071 37.6525C45.3424 37.6867 44.675 37.6582 44.0103 37.6582Z" fill="#0E2144"/>
<path fill-rule="evenodd" clip-rule="evenodd" d="M43.9875 37.2645C42.1277 37.3016 40.2736 37.2189 38.4223 37.042C34.8853 36.7055 31.4081 36.0665 28.0223 34.9854C25.4351 34.1611 22.9506 33.1057 20.6629 31.6338C19.0884 30.6212 17.6564 29.4459 16.5097 27.957C15.6226 26.8017 14.9808 25.5352 14.7298 24.0919C14.4417 22.4403 14.7013 20.8715 15.4344 19.3711C16.1703 17.8678 17.2514 16.6384 18.515 15.5573C20.3805 13.9656 22.5027 12.7904 24.7533 11.832C27.4489 10.6796 30.2557 9.88663 33.131 9.32185C35.0536 8.94532 36.9932 8.67148 38.9472 8.5203C40.1595 8.42617 41.3746 8.37768 42.5869 8.32919C44.2356 8.26358 45.8815 8.31207 47.5274 8.41191C51.7319 8.66578 55.8623 9.33326 59.8814 10.6083C62.5085 11.4412 65.0272 12.5137 67.3463 14.0141C68.8466 14.984 70.213 16.105 71.3254 17.5084C72.1926 18.6037 72.8458 19.8075 73.1482 21.1767C73.5418 22.9509 73.2936 24.651 72.4892 26.274C71.7505 27.7687 70.6694 28.9896 69.4057 30.0649C67.6629 31.5511 65.689 32.6692 63.601 33.5934C60.8997 34.7886 58.0815 35.6158 55.1862 36.2063C53.4377 36.5628 51.6777 36.8395 49.9006 36.9993C48.5885 37.1191 47.2735 37.1904 45.9585 37.2588C45.3082 37.2931 44.6464 37.2645 43.9875 37.2645Z" fill="#243D8F"/>
<path fill-rule="evenodd" clip-rule="evenodd" d="M63.0421 29.0951C63.0136 29.0951 62.985 29.0894 62.9194 29.0808C63.1876 28.9182 63.4243 28.7756 63.6611 28.6273C64.6423 28.014 65.5465 27.3123 66.3253 26.4651C66.3681 26.4195 66.4479 26.3795 66.5107 26.3795C68.4561 26.3795 70.4014 26.3881 72.3468 26.3938C72.3639 26.3938 72.3924 26.4024 72.421 26.4081C72.4096 26.4423 72.3953 26.4765 72.3782 26.5022C71.8305 27.435 71.2343 28.3278 70.4499 29.0808" fill="white"/>
<path fill-rule="evenodd" clip-rule="evenodd" d="M24.8732 29.0979C24.7619 29.1037 24.702 29.1094 24.6421 29.1094C22.3659 29.1094 17.5794 29.1094 17.5794 29.1094C17.5794 29.1094 17.5395 29.0751 17.4682 29.001C16.7066 28.2308 16.1104 27.3522 15.577 26.4052C15.5542 26.3624 15.5342 26.3168 15.5 26.2398C15.5913 26.2398 15.6569 26.2398 15.7253 26.2398C17.4625 26.2398 19.1968 26.2426 20.9339 26.2369C21.2249 26.2341 21.4388 26.3025 21.647 26.5393C22.4971 27.5034 23.524 28.2565 24.6108 28.9325C24.6849 28.9781 24.7591 29.0238 24.8732 29.0979Z" fill="white"/>
<path fill-rule="evenodd" clip-rule="evenodd" d="M36.6312 32.6008C38.0118 32.7405 39.1043 32.8746 40.4734 33.0115C40.4734 34.395 40.4734 35.7756 40.4734 37.1818C40.0855 37.1561 39.7118 37.1504 39.3382 37.1134C38.8875 37.0763 38.4425 37.0449 37.9947 36.9993C37.5097 36.9479 37.0191 36.8795 36.5313 36.831C36.403 36.8196 36.3545 36.8081 36.3545 36.8081C36.3545 36.8081 36.6255 32.6436 36.6312 32.6008Z" fill="white"/>
<path fill-rule="evenodd" clip-rule="evenodd" d="M36.6481 13.0786C36.6453 13.0158 36.6396 12.9645 36.6396 12.9131C36.6396 11.6152 36.6367 8.76564 36.6367 8.76564C36.6367 8.76564 36.6624 8.75993 36.7879 8.74567C37.8633 8.61731 38.8873 8.50607 39.9712 8.44902C40.0454 8.44046 40.1481 8.43475 40.2394 8.43475C40.2394 9.83816 40.2394 11.2615 40.2394 12.665C39.0499 12.8019 37.8576 12.9388 36.6481 13.0786Z" fill="white"/>
<path fill-rule="evenodd" clip-rule="evenodd" d="M72.6347 19.5879C72.5406 19.5879 66.1739 19.8674 65.9457 19.5879C65.3068 18.8063 64.6507 17.8364 63.8178 17.2545C63.775 17.226 63.7322 17.1975 63.6923 17.1661C63.6837 17.1604 63.6809 17.1461 63.6523 17.0977C63.7978 17.0977 63.9233 17.0977 64.046 17.0977C64.9502 17.1034 71.0088 17.1233 71.0088 17.1233C71.0088 17.1233 71.0088 17.1233 71.063 17.1832C71.6706 17.8821 72.147 18.6294 72.572 19.431C72.592 19.4709 72.6062 19.5165 72.6347 19.5879Z" fill="white"/>
<path fill-rule="evenodd" clip-rule="evenodd" d="M15.3374 19.5764C15.674 18.9004 16.0077 18.2928 16.4442 17.7366C16.6381 17.4884 16.892 17.1518 17.0517 16.9921L18.0016 17.0092C18.0016 17.0092 21.8496 17.0121 23.7721 17.0149C23.8349 17.0149 23.8976 17.0149 23.9832 17.0549C23.9319 17.0948 23.8834 17.1347 23.832 17.1718C22.8879 17.8421 22.0236 18.5952 21.2933 19.4994C21.2448 19.5593 21.1279 19.5935 21.0452 19.5935C20.081 19.5935 19.1169 19.585 18.1499 19.5793C17.2942 19.5764 16.4385 19.5793 15.5827 19.5793C15.5114 19.5764 15.4401 19.5764 15.3374 19.5764Z" fill="white"/>
<path fill-rule="evenodd" clip-rule="evenodd" d="M46.8628 12.7162C46.8628 11.2758 46.8628 9.83811 46.8628 8.37195C47.0995 8.38621 47.3249 8.39762 47.5474 8.41474C48.5515 8.49746 49.5555 8.58588 50.5596 8.66575C50.7393 8.68001 50.8049 8.71139 50.8049 8.71139C50.8049 8.71139 50.7992 11.5496 50.7992 12.856C50.7992 12.9273 50.7992 12.9986 50.7992 13.0785C49.4756 12.9558 48.1749 12.836 46.8628 12.7162Z" fill="white"/>
<path fill-rule="evenodd" clip-rule="evenodd" d="M47.0825 33.0343C48.2891 32.9231 49.3902 32.8119 50.6167 32.6978C50.6224 32.7634 50.7365 36.8966 50.7365 36.8966C50.7365 36.8966 50.7051 36.9108 50.5426 36.9222C49.4586 37.0506 48.3233 37.0877 47.2109 37.1818C47.1738 37.1847 47.1367 37.1761 47.0825 37.1733C47.0825 35.7898 47.0825 34.4121 47.0825 33.0343Z" fill="white"/>
<path fill-rule="evenodd" clip-rule="evenodd" d="M59.4024 35.1052C59.2455 35.1537 59.1542 35.1879 59.0601 35.2108C58.1958 35.4332 57.3315 35.6586 56.4643 35.8754C56.3902 35.8925 56.2846 35.8839 56.2247 35.8411C54.7072 34.7943 51.8234 32.5608 51.7749 32.518C52.0174 32.4752 53.9342 32.1757 54.77 32.0189C54.8356 32.0074 54.924 32.0189 54.9754 32.0559C56.4159 33.0514 57.8535 34.0527 59.2911 35.051C59.3082 35.0653 59.3339 35.0738 59.4024 35.1052Z" fill="white"/>
<path fill-rule="evenodd" clip-rule="evenodd" d="M28.2876 35.0396C28.5415 34.8599 28.7697 34.7002 29.0093 34.5319C30.213 33.6932 31.4167 32.8546 32.6262 32.0246C32.7061 31.9704 32.8287 31.939 32.9228 31.9561C33.9241 32.1387 34.9224 32.3326 35.9236 32.5209C35.9522 32.5266 35.8951 32.4581 35.9607 32.4695C35.8894 32.5266 31.3141 35.8583 31.3141 35.8583C31.3141 35.8583 31.2656 35.8554 31.1885 35.8354C30.2444 35.613 28.3789 35.0738 28.3789 35.0738C28.3789 35.0738 28.3361 35.0596 28.2876 35.0396Z" fill="white"/>
<path fill-rule="evenodd" clip-rule="evenodd" d="M59.1285 10.3715C59.0686 10.42 59.0258 10.4571 58.9802 10.4913C57.4826 11.5325 55.9823 12.5736 54.4876 13.6176C54.3792 13.6947 54.285 13.7089 54.1538 13.6833C53.2467 13.5093 52.334 13.3495 51.4269 13.1812C51.3641 13.1698 51.327 13.1584 51.2329 13.1384C51.3099 13.0785 56.239 9.61279 56.239 9.61279C56.239 9.61279 56.2846 9.62706 56.3759 9.64988C57.2687 9.86666 59.0886 10.3516 59.1285 10.3715Z" fill="white"/>
<path fill-rule="evenodd" clip-rule="evenodd" d="M29.9561 14.4648C29.4313 14.6531 28.935 14.8242 28.4443 15.0096C28.0393 15.1637 27.6399 15.3377 27.232 15.4888C27.1607 15.5145 27.0466 15.5088 26.9867 15.4689C25.6746 14.5646 24.3653 13.6547 23.0589 12.7448C23.0332 12.7277 23.0104 12.702 22.9619 12.6621C23.3242 12.4909 23.6636 12.3226 24.0116 12.1686C24.5108 11.9461 25.0128 11.7293 25.5177 11.5239C25.5862 11.4954 25.6689 11.4697 25.6689 11.4697C25.6689 11.4697 28.4928 13.4379 29.8563 14.3849C29.8791 14.3992 29.9019 14.422 29.9561 14.4648Z" fill="white"/>
<path fill-rule="evenodd" clip-rule="evenodd" d="M64.8391 12.568C64.2886 12.9616 63.8008 13.3068 63.313 13.6548C62.4002 14.3051 61.4875 14.9498 60.5804 15.6058C60.452 15.7 60.3522 15.7 60.2124 15.6429C59.4166 15.332 58.615 15.0325 57.8163 14.7301C57.7479 14.7045 57.6794 14.6788 57.5796 14.6446C57.6538 14.5847 57.7022 14.5419 57.7536 14.5048C59.1684 13.5007 60.5804 12.4967 61.9981 11.4983C62.0608 11.4555 62.1692 11.4156 62.2291 11.4413C63.1077 11.7893 63.9292 12.1401 64.8391 12.568Z" fill="white"/>
<path fill-rule="evenodd" clip-rule="evenodd" d="M28.647 10.4343C29.1918 10.2802 29.7052 10.1348 30.2187 9.99215C30.5039 9.91513 30.7892 9.83241 31.0773 9.7668C31.2142 9.73543 31.2998 9.72687 31.2998 9.72687C31.2998 9.72687 34.389 11.9518 35.858 13.01C35.8979 13.0414 35.9379 13.0728 36.0149 13.1327C35.684 13.1926 35.3873 13.2468 35.0907 13.3039C34.5116 13.4179 33.9326 13.5406 33.3535 13.649C33.2565 13.6661 33.1253 13.6633 33.0512 13.6119C31.6135 12.5879 30.1816 11.5553 28.7468 10.5227C28.724 10.5056 28.7069 10.4856 28.647 10.4343Z" fill="white"/>
<path fill-rule="evenodd" clip-rule="evenodd" d="M58.395 31.0747C58.6032 30.9977 58.783 30.9378 58.957 30.8693C59.4704 30.6696 59.981 30.4614 60.4944 30.2674C60.5657 30.2418 60.6827 30.2389 60.7397 30.2817C62.0005 31.1774 63.2585 32.0816 64.5135 32.983C64.5421 33.0029 64.5677 33.0286 64.6134 33.0714C64.4708 33.1427 64.3481 33.2083 64.2226 33.2654C63.6977 33.5021 63.1757 33.7417 62.6452 33.9699C62.5767 33.9985 62.4569 33.9956 62.3999 33.9557C61.0934 33.0286 59.7927 32.0902 58.4892 31.1574C58.472 31.1403 58.4492 31.1175 58.395 31.0747Z" fill="white"/>
<path fill-rule="evenodd" clip-rule="evenodd" d="M29.3859 31.0005C29.2889 31.069 29.2147 31.1232 29.1348 31.1774C27.8683 32.056 25.1927 33.9215 25.1927 33.9215C25.1927 33.9215 25.1471 33.9101 25.0244 33.8559C24.3941 33.5621 23.758 33.2797 23.1219 32.9916C23.0648 32.9659 23.0135 32.9345 22.9336 32.8917C23.3985 32.5665 23.8378 32.2585 24.2771 31.9533C25.1157 31.3685 25.9601 30.7866 26.7958 30.1962C26.927 30.102 27.0297 30.102 27.1781 30.1591C27.8484 30.4272 28.5244 30.6754 29.2004 30.9321C29.2546 30.9521 29.3088 30.972 29.3859 31.0005Z" fill="white"/>
<path fill-rule="evenodd" clip-rule="evenodd" d="M25.6489 11.4612C25.6489 11.4612 26.8755 11.0105 27.2834 10.8707C27.6485 10.7452 28.7467 10.3972 28.7467 10.3972L33.3021 13.6832L29.9818 14.6303L25.6489 11.4612Z" fill="#CB2026"/>
<path fill-rule="evenodd" clip-rule="evenodd" d="M15.3373 19.5764C15.3373 19.5764 14.5786 21.3421 14.6214 22.9908C14.6585 24.5283 15.5513 26.4052 15.5513 26.4052L21.6584 26.2369V19.5907" fill="#CB2026"/>
<path fill-rule="evenodd" clip-rule="evenodd" d="M29.3856 31.0005L25.1953 33.9215L28.3815 35.0767L32.9226 31.9561L29.3856 31.0005Z" fill="#CB2026"/>
<path fill-rule="evenodd" clip-rule="evenodd" d="M40.0996 32.8004L40.2223 37.179C40.2223 37.179 42.8351 37.3073 43.7365 37.2645C44.0959 37.2474 44.7434 37.276 45.3881 37.2645C46.3807 37.2474 47.3734 37.1932 47.3734 37.1932V32.8119L40.0996 32.8004Z" fill="#CB2026"/>
<path fill-rule="evenodd" clip-rule="evenodd" d="M54.9268 32.0417L59.3794 35.1623L61.2107 34.529L62.6341 33.9899L58.5037 31.0661L54.9268 32.0417Z" fill="#CB2026"/>
<path fill-rule="evenodd" clip-rule="evenodd" d="M66.0229 26.6391L72.3012 26.6505C72.3012 26.6505 73.3851 24.6652 73.3851 22.9737C73.3851 21.1424 72.538 19.3368 72.538 19.3368L66.351 19.2969L66.0229 26.6391Z" fill="#CB2026"/>
<path fill-rule="evenodd" clip-rule="evenodd" d="M53.9453 13.6148L58.7916 10.2632C58.7916 10.2632 59.6388 10.4885 60.603 10.8422C61.1335 11.0362 62.4599 11.5354 62.4599 11.5354L57.896 14.7244L53.9453 13.6148Z" fill="#CB2026"/>
<path fill-rule="evenodd" clip-rule="evenodd" d="M40.1738 8.44044C40.1738 8.44044 42.8009 8.31208 43.6766 8.30067C44.5524 8.28926 47.1795 8.37483 47.1795 8.37483V12.7933L40.1738 13.0158V8.44044Z" fill="#CB2026"/>
<path d="M43.825 33.1998C57.0959 33.1998 67.8541 28.5869 67.8541 22.8967C67.8541 17.2065 57.0959 12.5936 43.825 12.5936C30.5541 12.5936 19.7959 17.2065 19.7959 22.8967C19.7959 28.5869 30.5541 33.1998 43.825 33.1998Z" fill="#0E2144"/>
<path fill-rule="evenodd" clip-rule="evenodd" d="M57.9991 18.6608C57.2803 18.6608 56.7212 18.1074 56.7212 17.3972C56.7212 16.6898 57.2917 16.1193 57.9962 16.1221C58.7065 16.125 59.277 16.6898 59.277 17.3943C59.2741 18.1017 58.7151 18.6608 57.9991 18.6608ZM57.9934 18.4469C58.5895 18.4469 59.0659 17.9734 59.0659 17.3858C59.0659 16.8038 58.5753 16.3218 57.9877 16.3246C57.4029 16.3275 56.9209 16.8153 56.9237 17.4C56.9294 17.9819 57.4058 18.4469 57.9934 18.4469Z" fill="white"/>
<path fill-rule="evenodd" clip-rule="evenodd" d="M31.0804 17.6025C32.4496 17.6339 33.7104 17.9705 34.7829 18.8548C35.8184 19.7134 36.3832 20.8344 36.5714 22.1522C36.7197 23.1791 36.6313 24.186 36.2519 25.153C35.5616 26.913 34.2467 27.9399 32.4125 28.2936C31.2202 28.5218 30.025 28.4847 28.8812 28.0454C27.1412 27.3779 26.1143 26.08 25.6893 24.2916C25.3955 23.0536 25.4925 21.8327 26.0145 20.6689C26.7447 19.043 28.0283 18.1046 29.7569 17.7594C30.1905 17.6739 30.6383 17.6539 31.0804 17.6025ZM28.0483 22.911C28.0996 23.5157 28.1395 24.1176 28.2023 24.7223C28.2879 25.5381 28.5874 26.2683 29.0837 26.9215C29.2891 27.1897 29.5373 27.4036 29.8425 27.5519C30.4044 27.8229 30.9949 27.86 31.6024 27.7887C32.5865 27.6746 33.2626 27.1725 33.582 26.217C33.9814 25.0218 34.1497 23.7952 34.0755 22.5373C34.0356 21.8499 33.9814 21.1653 33.7817 20.5063C33.679 20.164 33.5307 19.8303 33.3567 19.5194C32.7748 18.4754 31.842 18.1388 30.7011 18.2643C30.0764 18.3328 29.5258 18.561 29.1208 19.0601C28.7557 19.508 28.4761 20.0072 28.3335 20.5691C28.1338 21.3307 28.0825 22.118 28.0483 22.911Z" fill="white"/>
<path fill-rule="evenodd" clip-rule="evenodd" d="M46.849 28.2964C44.1705 28.2964 41.5063 28.2964 38.8278 28.2964C38.8278 28.2308 38.8278 28.1737 38.8278 28.0996C38.9961 28.0768 39.1644 28.0596 39.3327 28.034C39.7378 27.9712 39.9745 27.7259 40.0658 27.338C40.1114 27.1497 40.14 26.9557 40.14 26.7618C40.1457 24.2773 40.1485 21.7928 40.1371 19.3111C40.1371 19.0544 40.0715 18.792 40.0031 18.541C39.9146 18.2129 39.6608 18.0532 39.3384 18.0019C39.1758 17.9762 39.0104 17.9648 38.845 17.9477C38.7851 17.7537 38.7993 17.7337 39.0018 17.7337C41.4407 17.7337 43.8767 17.7337 46.3155 17.7337C46.3726 17.7337 46.4296 17.7337 46.5095 17.7337C46.538 18.5296 46.5694 19.3083 46.5951 20.087C46.4296 20.1583 46.364 20.1013 46.3212 19.9444C46.2499 19.6791 46.1672 19.4167 46.0617 19.1657C45.862 18.6808 45.4883 18.3784 44.9635 18.3613C44.1648 18.3328 43.3632 18.3556 42.5503 18.3556C42.5503 19.8189 42.5503 21.2793 42.5503 22.7369C42.5646 22.7455 42.576 22.7569 42.5845 22.7569C43.2263 22.7541 43.8681 22.7797 44.5071 22.7398C45.2601 22.6913 45.6338 22.3062 45.7365 21.556C45.7422 21.5218 45.7451 21.4876 45.7508 21.4419C45.8192 21.4419 45.8848 21.4419 45.9647 21.4419C45.9647 22.4631 45.9647 23.49 45.9647 24.5226C45.8934 24.5226 45.8249 24.5226 45.765 24.5226C45.7536 24.5055 45.7451 24.4969 45.7422 24.4855C45.5853 23.7524 45.2944 23.4501 44.5413 23.393C43.8824 23.3445 43.2178 23.3816 42.5474 23.3816C42.5446 23.4016 42.536 23.4272 42.536 23.4558C42.536 24.4627 42.5218 25.4696 42.5417 26.4765C42.556 27.2353 42.9154 27.6318 43.6656 27.6803C44.1819 27.7145 44.7068 27.686 45.2231 27.6375C45.7108 27.589 46.0959 27.3208 46.3241 26.8816C46.4838 26.5735 46.6122 26.2483 46.7263 25.9203C46.7805 25.7606 46.8518 25.7263 47.0058 25.7748C46.9545 26.6134 46.9003 27.4521 46.849 28.2964Z" fill="white"/>
<path fill-rule="evenodd" clip-rule="evenodd" d="M52.0633 28.2936C51.005 28.2936 49.9496 28.2936 48.8828 28.2936C48.8429 28.1566 48.8628 28.0853 49.0283 28.0511C49.5218 27.9427 49.8926 27.6404 50.1179 27.2039C50.3718 26.7133 50.5943 26.2027 50.7826 25.6836C51.7296 23.0622 52.6595 20.435 53.5894 17.8079C53.6379 17.671 53.6978 17.6225 53.8432 17.6254C54.1855 17.6368 54.5307 17.6368 54.873 17.6254C55.0042 17.6225 55.0641 17.6682 55.1097 17.788C55.9569 19.9644 56.8098 22.1408 57.6598 24.3172C57.9793 25.1302 58.3045 25.9431 58.6154 26.7589C58.8864 27.4749 59.3685 27.9342 60.1386 28.0568C60.3012 28.0825 60.267 28.1823 60.2527 28.2936C58.5755 28.2936 56.9039 28.2936 55.2181 28.2936C55.2181 28.2308 55.2181 28.1709 55.2181 28.0939C55.3493 28.0711 55.4863 28.0597 55.6175 28.0254C55.7373 27.9941 55.8599 27.9541 55.9683 27.8942C56.1823 27.7773 56.2621 27.5862 56.2307 27.3465C56.1594 26.7875 55.9227 26.2854 55.723 25.7691C55.5576 25.3441 55.3807 24.922 55.221 24.4941C55.1782 24.3828 55.1211 24.3543 55.007 24.3543C54.0572 24.36 53.1073 24.36 52.1574 24.3543C52.0376 24.3543 51.992 24.3914 51.9549 24.4998C51.7153 25.1958 51.4586 25.8889 51.2304 26.5878C51.1534 26.8217 51.1191 27.0784 51.1134 27.3266C51.1077 27.6204 51.2589 27.8372 51.5499 27.937C51.6754 27.9798 51.798 28.0368 51.9264 28.054C52.0947 28.0711 52.1032 28.1566 52.0633 28.2936ZM53.5209 20.1184C53.093 21.3107 52.6794 22.4631 52.2658 23.6212C53.1444 23.6212 53.9973 23.6212 54.8701 23.6212C54.4194 22.4546 53.9773 21.305 53.5209 20.1184Z" fill="white"/>
<path fill-rule="evenodd" clip-rule="evenodd" d="M58.7236 18.0361C58.5895 18.0361 58.4383 18.0447 58.2871 18.0304C58.2443 18.0276 58.193 17.9734 58.1673 17.9306C58.0761 17.7794 57.9933 17.6254 57.9021 17.4628C57.8079 17.7109 57.8564 17.8963 58.0675 18.0161C57.7908 18.0161 57.5484 18.0161 57.2603 18.0161C57.5398 17.902 57.4457 17.6853 57.4571 17.5027C57.4656 17.3601 57.4571 17.2175 57.4599 17.0748C57.4599 16.9408 57.4856 16.7953 57.2688 16.7639C57.3116 16.7325 57.3287 16.7097 57.3458 16.7097C57.6482 16.7154 57.9505 16.7126 58.2501 16.7411C58.4069 16.7554 58.5382 16.8466 58.5724 17.0263C58.6066 17.2203 58.521 17.343 58.3157 17.4285C58.4554 17.6339 58.5838 17.825 58.7236 18.0361ZM57.8792 16.8153C57.8792 16.9978 57.8792 17.1718 57.8792 17.343C58.096 17.3458 58.1588 17.2945 58.1702 17.1119C58.1816 16.898 58.1217 16.8352 57.8792 16.8153Z" fill="white"/>
</g>
<defs>
<clipPath id="clip0_145_82">
<rect width="87" height="87" fill="white"/>
</clipPath>
</defs>
</svg>
