<svg width="12" height="12" viewBox="0 0 12 12" fill="none" xmlns="http://www.w3.org/2000/svg">
<path d="M9.5 4.5H9V2H4V10H11V6C11 5.17 10.33 4.5 9.5 4.5ZM5 3H8V4.5H5V3ZM7 8.5H5V6H7V8.5ZM8 8.5C7.725 8.5 7.5 8.275 7.5 8C7.5 7.725 7.725 7.5 8 7.5C8.275 7.5 8.5 7.725 8.5 8C8.5 8.275 8.275 8.5 8 8.5ZM8 7C7.725 7 7.5 6.775 7.5 6.5C7.5 6.225 7.725 6 8 6C8.275 6 8.5 6.225 8.5 6.5C8.5 6.775 8.275 7 8 7ZM9.5 8.5C9.225 8.5 9 8.275 9 8C9 7.725 9.225 7.5 9.5 7.5C9.775 7.5 10 7.725 10 8C10 8.275 9.775 8.5 9.5 8.5ZM9.5 7C9.225 7 9 6.775 9 6.5C9 6.225 9.225 6 9.5 6C9.775 6 10 6.225 10 6.5C10 6.775 9.775 7 9.5 7ZM2.25 4C1.91848 4 1.60054 4.1317 1.36612 4.36612C1.1317 4.60054 1 4.91848 1 5.25V9.25C1 9.58152 1.1317 9.89946 1.36612 10.1339C1.60054 10.3683 1.91848 10.5 2.25 10.5C2.58152 10.5 2.89946 10.3683 3.13388 10.1339C3.3683 9.89946 3.5 9.58152 3.5 9.25V5.25C3.5 5.08585 3.46767 4.9233 3.40485 4.77165C3.34203 4.61999 3.24996 4.48219 3.13388 4.36612C3.01781 4.25004 2.88001 4.15797 2.72835 4.09515C2.5767 4.03233 2.41415 4 2.25 4Z" fill="white"/>
</svg>
