<svg width="12" height="12" viewBox="0 0 12 12" fill="none" xmlns="http://www.w3.org/2000/svg">
<path d="M11 4.304V8.375C11 8.79007 10.8412 9.18941 10.5562 9.49112C10.2711 9.79282 9.8814 9.974 9.467 9.9975L9.375 10H2.625C2.20993 10 1.81059 9.84122 1.50888 9.55616C1.20718 9.2711 1.026 8.8814 1.0025 8.467L1 8.375V4.304L5.826 6.832C5.87969 6.86012 5.93939 6.87481 6 6.87481C6.06061 6.87481 6.12031 6.86012 6.174 6.832L11 4.304ZM2.625 2H9.375C9.77779 1.99995 10.1662 2.1495 10.465 2.41963C10.7638 2.68977 10.9516 3.06124 10.992 3.462L6 6.077L1.008 3.462C1.04676 3.07716 1.22152 2.71876 1.50087 2.45123C1.78023 2.1837 2.14584 2.02459 2.532 2.0025L2.625 2H9.375H2.625Z" fill="white"/>
</svg>
