<svg width="10" height="12" viewBox="0 0 10 12" fill="none" xmlns="http://www.w3.org/2000/svg">
<path d="M5 0.75C3.90638 0.75129 2.85792 1.1863 2.08461 1.95961C1.31131 2.73292 0.876295 3.78138 0.875004 4.875C0.873695 5.76871 1.16562 6.63817 1.706 7.35C1.706 7.35 1.8185 7.49813 1.83688 7.5195L5 11.25L8.16463 7.51763C8.18113 7.49775 8.294 7.35 8.294 7.35L8.29438 7.34888C8.83449 6.63735 9.12629 5.7683 9.125 4.875C9.12371 3.78138 8.6887 2.73292 7.91539 1.95961C7.14209 1.1863 6.09363 0.75129 5 0.75ZM5 6.375C4.70333 6.375 4.41332 6.28703 4.16665 6.1222C3.91998 5.95738 3.72772 5.72311 3.61419 5.44903C3.50065 5.17494 3.47095 4.87334 3.52883 4.58236C3.5867 4.29139 3.72957 4.02412 3.93934 3.81434C4.14912 3.60456 4.4164 3.4617 4.70737 3.40382C4.99834 3.34594 5.29994 3.37565 5.57403 3.48918C5.84812 3.60271 6.08239 3.79497 6.24721 4.04164C6.41203 4.28832 6.5 4.57833 6.5 4.875C6.49951 5.27267 6.34131 5.65391 6.06012 5.93511C5.77892 6.21631 5.39768 6.3745 5 6.375Z" fill="white"/>
</svg>
