<svg width="12" height="12" viewBox="0 0 12 12" fill="none" xmlns="http://www.w3.org/2000/svg">
<path d="M9.4985 10C5.233 10.006 1.9955 6.73 2 2.5015C2 2.225 2.224 2 2.5 2H3.82C4.0675 2 4.278 2.182 4.3145 2.427C4.40156 3.01453 4.57246 3.58652 4.822 4.1255L4.8735 4.2365C4.9081 4.31119 4.91554 4.39562 4.89455 4.47522C4.87355 4.55481 4.82544 4.62458 4.7585 4.6725C4.3495 4.9645 4.1935 5.552 4.512 6.01C4.913 6.58666 5.41348 7.08731 5.99 7.4885C6.4485 7.8065 7.036 7.6505 7.3275 7.242C7.37537 7.17486 7.4452 7.12657 7.52491 7.10548C7.60462 7.08439 7.6892 7.09182 7.764 7.1265L7.8745 7.1775C8.4135 7.4275 8.9855 7.5985 9.573 7.6855C9.818 7.722 10 7.9325 10 8.1805V9.5C10 9.5657 9.98706 9.63076 9.9619 9.69146C9.93674 9.75215 9.89986 9.80729 9.85338 9.85373C9.8069 9.90017 9.75172 9.93699 9.691 9.96208C9.63028 9.98718 9.56521 10.0001 9.49951 10H9.4985Z" fill="white"/>
</svg>
